{
    "patcher": {
        "fileversion": 1,
        "appversion": {
            "major": 9,
            "minor": 1,
            "revision": 2,
            "architecture": "x64",
            "modernui": 1
        },
        "classnamespace": "box",
        "rect": [ 34.0, 77.0, 1468.0, 801.0 ],
        "boxes": [
            {
                "box": {
                    "id": "obj-43",
                    "maxclass": "message",
                    "numinlets": 2,
                    "numoutlets": 1,
                    "outlettype": [ "" ],
                    "patching_rect": [ 549.7804937362671, 918.0, 35.0, 22.0 ],
                    "text": "open"
                }
            },
            {
                "box": {
                    "id": "obj-21",
                    "maxclass": "comment",
                    "numinlets": 1,
                    "numoutlets": 0,
                    "patching_rect": [ 663.0, 1174.0, 117.0, 20.0 ],
                    "style": "helpfile_label",
                    "text": "elapsed time (ms)"
                }
            },
            {
                "box": {
                    "id": "obj-18",
                    "linecount": 2,
                    "maxclass": "comment",
                    "numinlets": 1,
                    "numoutlets": 0,
                    "patching_rect": [ 827.0, 1047.0, 352.0, 34.0 ],
                    "style": "helpfile_label",
                    "text": "alternatively, the record message will start recording for a fixed amount of time (in milliseconds) and then stop."
                }
            },
            {
                "box": {
                    "bubble": 1,
                    "fontname": "Arial",
                    "fontsize": 13.0,
                    "id": "obj-17",
                    "maxclass": "comment",
                    "numinlets": 1,
                    "numoutlets": 0,
                    "patching_rect": [ 732.0, 1002.0, 401.0, 25.0 ],
                    "text": "toggle on to start recording, toggle off to stop and close the file"
                }
            },
            {
                "box": {
                    "bubble": 1,
                    "fontname": "Arial",
                    "fontsize": 13.0,
                    "id": "obj-22",
                    "maxclass": "comment",
                    "numinlets": 1,
                    "numoutlets": 0,
                    "patching_rect": [ 667.0, 917.0, 311.0, 25.0 ],
                    "text": "set file name for recording (default to AIFF type)"
                }
            },
            {
                "box": {
                    "fontface": 0,
                    "fontname": "Arial",
                    "fontsize": 13.0,
                    "id": "obj-23",
                    "maxclass": "number~",
                    "mode": 2,
                    "numinlets": 2,
                    "numoutlets": 2,
                    "outlettype": [ "signal", "float" ],
                    "patching_rect": [ 604.0, 1174.0, 59.0, 23.0 ],
                    "sig": 0.0
                }
            },
            {
                "box": {
                    "fontname": "Arial",
                    "fontsize": 13.0,
                    "id": "obj-25",
                    "maxclass": "message",
                    "numinlets": 2,
                    "numoutlets": 1,
                    "outlettype": [ "" ],
                    "patching_rect": [ 747.0, 1055.0, 80.0, 23.0 ],
                    "text": "record 1000"
                }
            },
            {
                "box": {
                    "id": "obj-27",
                    "maxclass": "toggle",
                    "numinlets": 1,
                    "numoutlets": 1,
                    "outlettype": [ "int" ],
                    "parameter_enable": 0,
                    "patching_rect": [ 682.0, 1002.0, 24.0, 24.0 ]
                }
            },
            {
                "box": {
                    "fontname": "Arial",
                    "fontsize": 13.0,
                    "id": "obj-26",
                    "maxclass": "newobj",
                    "numinlets": 1,
                    "numoutlets": 1,
                    "outlettype": [ "signal" ],
                    "patching_rect": [ 604.0, 1142.0, 74.0, 23.0 ],
                    "text": "sfrecord~ 1"
                }
            },
            {
                "box": {
                    "border": 0,
                    "filename": "helpargs.js",
                    "id": "obj-28",
                    "ignoreclick": 1,
                    "jsarguments": [ "sfrecord~" ],
                    "maxclass": "jsui",
                    "numinlets": 1,
                    "numoutlets": 1,
                    "outlettype": [ "" ],
                    "parameter_enable": 0,
                    "patching_rect": [ 779.0, 1142.0, 263.0489501953125, 54.0 ]
                }
            },
            {
                "box": {
                    "id": "obj-91",
                    "maxclass": "message",
                    "numinlets": 2,
                    "numoutlets": 1,
                    "outlettype": [ "" ],
                    "patching_rect": [ 852.0, 613.0, 105.0, 22.0 ],
                    "text": "definerange 0 127"
                }
            },
            {
                "box": {
                    "id": "obj-88",
                    "maxclass": "number",
                    "numinlets": 1,
                    "numoutlets": 2,
                    "outlettype": [ "", "bang" ],
                    "parameter_enable": 0,
                    "patching_rect": [ 585.305536031723, 500.74072432518005, 50.0, 22.0 ]
                }
            },
            {
                "box": {
                    "fontname": "Arial",
                    "fontsize": 12.0,
                    "format": 6,
                    "id": "obj-3",
                    "maxclass": "flonum",
                    "numinlets": 1,
                    "numoutlets": 2,
                    "outlettype": [ "", "bang" ],
                    "parameter_enable": 0,
                    "patching_rect": [ 811.0, 577.5370181202888, 50.0, 22.0 ]
                }
            },
            {
                "box": {
                    "fontname": "Arial",
                    "fontsize": 13.0,
                    "id": "obj-4",
                    "maxclass": "newobj",
                    "numinlets": 4,
                    "numoutlets": 1,
                    "outlettype": [ "" ],
                    "patching_rect": [ 600.7407210469246, 577.0370181202888, 199.0, 23.0 ],
                    "text": "pak 0. 0. 0. 0."
                }
            },
            {
                "box": {
                    "id": "obj-86",
                    "maxclass": "newobj",
                    "numinlets": 2,
                    "numoutlets": 1,
                    "outlettype": [ "int" ],
                    "patching_rect": [ 595.555536031723, 444.44442987442017, 29.5, 22.0 ],
                    "text": "*"
                }
            },
            {
                "box": {
                    "id": "obj-85",
                    "maxclass": "plot~",
                    "numinlets": 1,
                    "numoutlets": 1,
                    "numpoints": 1,
                    "outlettype": [ "" ],
                    "patching_rect": [ 600.7407210469246, 648.0, 206.38297724723816, 206.38297724723816 ],
                    "subplots": [
                        {
                            "color": [ 0.4000000059604645, 0.4000000059604645, 0.75, 1.0 ],
                            "thickness": 3.0,
                            "point_style": "circle",
                            "line_style": "origin",
                            "number_style": "none",
                            "filter": "none",
                            "domain_start": 0.0,
                            "domain_end": 1.0,
                            "domain_style": "linear",
                            "domain_markers": [],
                            "domain_labels": [],
                            "range_start": 0.0,
                            "range_end": 127.0,
                            "range_style": "linear",
                            "range_markers": [],
                            "range_labels": [],
                            "origin_x": 0.0,
                            "origin_y": 0.0
                        }
                    ]
                }
            },
            {
                "box": {
                    "id": "obj-84",
                    "maxclass": "number",
                    "numinlets": 1,
                    "numoutlets": 2,
                    "outlettype": [ "", "bang" ],
                    "parameter_enable": 0,
                    "patching_rect": [ 712.5, 548.1481301784515, 50.0, 22.0 ]
                }
            },
            {
                "box": {
                    "id": "obj-81",
                    "maxclass": "newobj",
                    "numinlets": 1,
                    "numoutlets": 1,
                    "outlettype": [ "" ],
                    "patching_rect": [ 714.0, 513.6585488319397, 134.0, 22.0 ],
                    "text": "if ($i1 > 0) then 1 else 0"
                }
            },
            {
                "box": {
                    "id": "obj-78",
                    "maxclass": "gain~",
                    "multichannelvariant": 0,
                    "numinlets": 1,
                    "numoutlets": 2,
                    "outlettype": [ "signal", "" ],
                    "parameter_enable": 0,
                    "patching_rect": [ 863.8554536104202, 301.9467548131943, 22.0, 140.0 ]
                }
            },
            {
                "box": {
                    "id": "obj-75",
                    "maxclass": "number",
                    "numinlets": 1,
                    "numoutlets": 2,
                    "outlettype": [ "", "bang" ],
                    "parameter_enable": 0,
                    "patching_rect": [ 714.0, 465.04479545354843, 50.0, 22.0 ]
                }
            },
            {
                "box": {
                    "id": "obj-68",
                    "maxclass": "newobj",
                    "numinlets": 2,
                    "numoutlets": 1,
                    "outlettype": [ "float" ],
                    "patching_rect": [ 714.0, 419.9467548131943, 82.0, 22.0 ],
                    "text": "peakamp~ 20"
                }
            },
            {
                "box": {
                    "fontsize": 12.0,
                    "id": "obj-42",
                    "maxclass": "newobj",
                    "numinlets": 2,
                    "numoutlets": 1,
                    "outlettype": [ "int" ],
                    "patching_rect": [ 419.51220512390137, 634.1463565826416, 29.5, 22.0 ],
                    "text": "+ 9"
                }
            },
            {
                "box": {
                    "fontsize": 12.0,
                    "id": "obj-41",
                    "maxclass": "newobj",
                    "numinlets": 2,
                    "numoutlets": 1,
                    "outlettype": [ "int" ],
                    "patching_rect": [ 368.2926917076111, 634.1463565826416, 29.5, 22.0 ],
                    "text": "+ 7"
                }
            },
            {
                "box": {
                    "id": "obj-40",
                    "maxclass": "newobj",
                    "numinlets": 2,
                    "numoutlets": 1,
                    "outlettype": [ "int" ],
                    "patching_rect": [ 312.19512939453125, 634.1463565826416, 29.5, 22.0 ],
                    "text": "+ 4"
                }
            },
            {
                "box": {
                    "id": "obj-39",
                    "maxclass": "ezdac~",
                    "numinlets": 2,
                    "numoutlets": 0,
                    "patching_rect": [ 298.78049492836, 212.19512701034546, 45.0, 45.0 ]
                }
            },
            {
                "box": {
                    "id": "obj-35",
                    "maxclass": "number",
                    "numinlets": 1,
                    "numoutlets": 2,
                    "outlettype": [ "", "bang" ],
                    "parameter_enable": 0,
                    "patching_rect": [ 143.90244245529175, 571.9512331485748, 50.0, 22.0 ]
                }
            },
            {
                "box": {
                    "id": "obj-33",
                    "maxclass": "newobj",
                    "numinlets": 3,
                    "numoutlets": 2,
                    "outlettype": [ "int", "int" ],
                    "patching_rect": [ 248.7804937362671, 504.8780608177185, 63.0, 22.0 ],
                    "text": "split 0 127"
                }
            },
            {
                "box": {
                    "id": "obj-32",
                    "maxclass": "newobj",
                    "numinlets": 3,
                    "numoutlets": 0,
                    "patching_rect": [ 248.7804937362671, 719.5122122764587, 49.0, 22.0 ],
                    "text": "noteout"
                }
            },
            {
                "box": {
                    "id": "obj-31",
                    "maxclass": "newobj",
                    "numinlets": 3,
                    "numoutlets": 2,
                    "outlettype": [ "float", "float" ],
                    "patching_rect": [ 248.7804937362671, 679.268308877945, 108.0, 22.0 ],
                    "text": "makenote 100 250"
                }
            },
            {
                "box": {
                    "id": "obj-30",
                    "maxclass": "kslider",
                    "numinlets": 2,
                    "numoutlets": 2,
                    "outlettype": [ "int", "int" ],
                    "parameter_enable": 0,
                    "patching_rect": [ 248.7804937362671, 541.4634275436401, 336.0, 53.0 ]
                }
            },
            {
                "box": {
                    "id": "obj-29",
                    "maxclass": "toggle",
                    "numinlets": 1,
                    "numoutlets": 1,
                    "outlettype": [ "int" ],
                    "parameter_enable": 0,
                    "patching_rect": [ 252.43903040885925, 176.82927250862122, 24.0, 24.0 ]
                }
            },
            {
                "box": {
                    "id": "obj-20",
                    "maxclass": "newobj",
                    "numinlets": 2,
                    "numoutlets": 2,
                    "outlettype": [ "signal", "bang" ],
                    "patching_rect": [ 164.63415026664734, 256.0975670814514, 47.0, 22.0 ],
                    "text": "sfplay~"
                }
            },
            {
                "box": {
                    "id": "obj-19",
                    "maxclass": "message",
                    "numinlets": 2,
                    "numoutlets": 1,
                    "outlettype": [ "" ],
                    "patching_rect": [ 164.63415026664734, 212.19512701034546, 35.0, 22.0 ],
                    "text": "open"
                }
            },
            {
                "box": {
                    "id": "obj-14",
                    "maxclass": "number",
                    "numinlets": 1,
                    "numoutlets": 2,
                    "outlettype": [ "", "bang" ],
                    "parameter_enable": 0,
                    "patching_rect": [ 248.7804937362671, 471.95123076438904, 50.0, 22.0 ]
                }
            },
            {
                "box": {
                    "id": "obj-12",
                    "maxclass": "newobj",
                    "numinlets": 1,
                    "numoutlets": 1,
                    "outlettype": [ "" ],
                    "patching_rect": [ 248.7804937362671, 430.48781514167786, 32.0, 22.0 ],
                    "text": "ftom"
                }
            },
            {
                "box": {
                    "id": "obj-11",
                    "maxclass": "number",
                    "numinlets": 1,
                    "numoutlets": 2,
                    "outlettype": [ "", "bang" ],
                    "parameter_enable": 0,
                    "patching_rect": [ 248.7804937362671, 382.92683839797974, 50.0, 22.0 ]
                }
            },
            {
                "box": {
                    "fontface": 0,
                    "fontname": "Arial",
                    "fontsize": 12.0,
                    "id": "obj-9",
                    "maxclass": "number~",
                    "mode": 2,
                    "numinlets": 2,
                    "numoutlets": 2,
                    "outlettype": [ "signal", "float" ],
                    "patching_rect": [ 210.97561478614807, 345.1219594478607, 56.0, 22.0 ],
                    "sig": 0.0
                }
            },
            {
                "box": {
                    "id": "obj-1",
                    "maxclass": "newobj",
                    "numinlets": 3,
                    "numoutlets": 5,
                    "outlettype": [ "signal", "signal", "signal", "signal", "list" ],
                    "patching_rect": [ 164.63415026664734, 293.90244603157043, 209.0, 22.0 ],
                    "saved_object_attributes": {
                        "notebase": 0,
                        "notelist": [ 100, 200, 300, 400, 500, 600, 700, 800, 900, 1000, 1100 ],
                        "pitchdetection": 1,
                        "retune": 0,
                        "use_16bit": [ 0 ]
                    },
                    "text": "retune~ @retune 0 @pitchdetection 1"
                }
            },
            {
                "box": {
                    "background": 1,
                    "bgcolor": [ 0.9, 0.65, 0.05, 1.0 ],
                    "fontface": 1,
                    "hint": "",
                    "id": "obj-34",
                    "ignoreclick": 1,
                    "legacytextcolor": 1,
                    "maxclass": "textbutton",
                    "numinlets": 1,
                    "numoutlets": 3,
                    "outlettype": [ "", "", "int" ],
                    "parameter_enable": 0,
                    "patching_rect": [ 707.0, 1002.0, 20.0, 20.0 ],
                    "rounded": 60.0,
                    "saved_attribute_attributes": {
                        "bgcolor": {
                            "expression": "themecolor.lesson_step_circle"
                        }
                    },
                    "text": "3",
                    "textcolor": [ 0.34902, 0.34902, 0.34902, 1.0 ]
                }
            },
            {
                "box": {
                    "background": 1,
                    "bgcolor": [ 0.9, 0.65, 0.05, 1.0 ],
                    "fontface": 1,
                    "hint": "",
                    "id": "obj-93",
                    "ignoreclick": 1,
                    "legacytextcolor": 1,
                    "maxclass": "textbutton",
                    "numinlets": 1,
                    "numoutlets": 3,
                    "outlettype": [ "", "", "int" ],
                    "parameter_enable": 0,
                    "patching_rect": [ 646.0, 919.0, 20.0, 20.0 ],
                    "rounded": 60.0,
                    "saved_attribute_attributes": {
                        "bgcolor": {
                            "expression": "themecolor.lesson_step_circle"
                        }
                    },
                    "text": "1",
                    "textcolor": [ 0.34902, 0.34902, 0.34902, 1.0 ]
                }
            }
        ],
        "lines": [
            {
                "patchline": {
                    "destination": [ "obj-9", 0 ],
                    "source": [ "obj-1", 1 ]
                }
            },
            {
                "patchline": {
                    "destination": [ "obj-12", 0 ],
                    "source": [ "obj-11", 0 ]
                }
            },
            {
                "patchline": {
                    "destination": [ "obj-14", 0 ],
                    "source": [ "obj-12", 0 ]
                }
            },
            {
                "patchline": {
                    "destination": [ "obj-33", 0 ],
                    "source": [ "obj-14", 0 ]
                }
            },
            {
                "patchline": {
                    "destination": [ "obj-20", 0 ],
                    "source": [ "obj-19", 0 ]
                }
            },
            {
                "patchline": {
                    "destination": [ "obj-1", 0 ],
                    "midpoints": [ 174.13415026664734, 288.8299620747566 ],
                    "order": 2,
                    "source": [ "obj-20", 0 ]
                }
            },
            {
                "patchline": {
                    "destination": [ "obj-39", 0 ],
                    "order": 1,
                    "source": [ "obj-20", 0 ]
                }
            },
            {
                "patchline": {
                    "destination": [ "obj-78", 0 ],
                    "order": 0,
                    "source": [ "obj-20", 0 ]
                }
            },
            {
                "patchline": {
                    "destination": [ "obj-26", 0 ],
                    "midpoints": [ 756.5, 1094.0, 613.5, 1094.0 ],
                    "source": [ "obj-25", 0 ]
                }
            },
            {
                "patchline": {
                    "destination": [ "obj-23", 0 ],
                    "source": [ "obj-26", 0 ]
                }
            },
            {
                "patchline": {
                    "destination": [ "obj-26", 0 ],
                    "midpoints": [ 691.5, 1094.0, 613.5, 1094.0 ],
                    "source": [ "obj-27", 0 ]
                }
            },
            {
                "patchline": {
                    "destination": [ "obj-20", 0 ],
                    "source": [ "obj-29", 0 ]
                }
            },
            {
                "patchline": {
                    "destination": [ "obj-85", 0 ],
                    "source": [ "obj-3", 0 ]
                }
            },
            {
                "patchline": {
                    "destination": [ "obj-31", 0 ],
                    "order": 3,
                    "source": [ "obj-30", 0 ]
                }
            },
            {
                "patchline": {
                    "destination": [ "obj-40", 0 ],
                    "order": 2,
                    "source": [ "obj-30", 0 ]
                }
            },
            {
                "patchline": {
                    "destination": [ "obj-41", 0 ],
                    "order": 1,
                    "source": [ "obj-30", 0 ]
                }
            },
            {
                "patchline": {
                    "destination": [ "obj-42", 0 ],
                    "order": 0,
                    "source": [ "obj-30", 0 ]
                }
            },
            {
                "patchline": {
                    "destination": [ "obj-32", 2 ],
                    "source": [ "obj-31", 1 ]
                }
            },
            {
                "patchline": {
                    "destination": [ "obj-32", 0 ],
                    "source": [ "obj-31", 0 ]
                }
            },
            {
                "patchline": {
                    "destination": [ "obj-30", 0 ],
                    "order": 1,
                    "source": [ "obj-33", 0 ]
                }
            },
            {
                "patchline": {
                    "destination": [ "obj-35", 0 ],
                    "order": 2,
                    "source": [ "obj-33", 0 ]
                }
            },
            {
                "patchline": {
                    "destination": [ "obj-86", 0 ],
                    "order": 0,
                    "source": [ "obj-33", 0 ]
                }
            },
            {
                "patchline": {
                    "destination": [ "obj-85", 0 ],
                    "source": [ "obj-4", 0 ]
                }
            },
            {
                "patchline": {
                    "destination": [ "obj-31", 0 ],
                    "source": [ "obj-40", 0 ]
                }
            },
            {
                "patchline": {
                    "destination": [ "obj-31", 0 ],
                    "source": [ "obj-41", 0 ]
                }
            },
            {
                "patchline": {
                    "destination": [ "obj-31", 0 ],
                    "source": [ "obj-42", 0 ]
                }
            },
            {
                "patchline": {
                    "destination": [ "obj-26", 0 ],
                    "source": [ "obj-43", 0 ]
                }
            },
            {
                "patchline": {
                    "destination": [ "obj-75", 0 ],
                    "source": [ "obj-68", 0 ]
                }
            },
            {
                "patchline": {
                    "destination": [ "obj-81", 0 ],
                    "source": [ "obj-75", 0 ]
                }
            },
            {
                "patchline": {
                    "destination": [ "obj-68", 0 ],
                    "source": [ "obj-78", 0 ]
                }
            },
            {
                "patchline": {
                    "destination": [ "obj-84", 0 ],
                    "source": [ "obj-81", 0 ]
                }
            },
            {
                "patchline": {
                    "destination": [ "obj-86", 1 ],
                    "source": [ "obj-84", 0 ]
                }
            },
            {
                "patchline": {
                    "destination": [ "obj-88", 0 ],
                    "source": [ "obj-86", 0 ]
                }
            },
            {
                "patchline": {
                    "destination": [ "obj-4", 0 ],
                    "source": [ "obj-88", 0 ]
                }
            },
            {
                "patchline": {
                    "destination": [ "obj-11", 0 ],
                    "source": [ "obj-9", 1 ]
                }
            },
            {
                "patchline": {
                    "destination": [ "obj-85", 0 ],
                    "source": [ "obj-91", 0 ]
                }
            }
        ],
        "autosave": 0
    }
}